<?xml version="1.0" standalone="no"?>
<!DOCTYPE svg PUBLIC "-//W3C//DTD SVG 20010904//EN"
 "http://www.w3.org/TR/2001/REC-SVG-20010904/DTD/svg10.dtd">
<svg version="1.0" xmlns="http://www.w3.org/2000/svg"
 width="500.000000pt" height="500.000000pt" viewBox="0 0 500.000000 500.000000"
 preserveAspectRatio="xMidYMid meet">

<g transform="translate(0.000000,500.000000) scale(0.100000,-0.100000)"
fill="#000000" stroke="none">
<path d="M0 2500 l0 -2500 2500 0 2500 0 0 2500 0 2500 -2500 0 -2500 0 0
-2500z m2361 1622 c-53 -54 -98 -97 -100 -96 -7 6 48 90 76 115 31 29 104 79
114 79 4 0 -37 -44 -90 -98z m197 -232 c29 -27 52 -54 52 -59 0 -5 -12 -19
-27 -31 l-28 -22 -3 26 c-4 35 -18 33 -31 -4 -5 -16 -15 -30 -21 -30 -6 0 -16
14 -21 30 -13 37 -27 39 -31 4 l-3 -26 -27 22 c-16 12 -28 27 -28 33 0 11 97
107 109 107 4 0 30 -22 59 -50z m447 -37 c103 -40 249 -115 348 -179 l67 -44
0 -117 c0 -65 -3 -135 -6 -156 l-7 -38 -33 70 c-71 145 -240 235 -381 203 -42
-10 -43 -9 -43 16 0 20 -57 226 -77 280 -7 18 6 14 132 -35z m-617 -99 c30
-21 30 -48 0 -39 -26 8 -50 34 -42 46 7 13 17 11 42 -7z m278 4 c8 -13 -30
-48 -52 -48 -22 0 -17 27 8 44 27 19 35 20 44 4z m-806 -272 c-36 -24 -82 -62
-104 -84 l-39 -40 46 16 c25 9 49 14 52 10 12 -12 -45 -150 -74 -178 -15 -16
-43 -58 -62 -94 -18 -35 -35 -64 -36 -62 -6 6 36 114 71 183 20 40 36 75 36
78 0 3 -12 -2 -27 -12 l-28 -17 19 21 c10 12 16 28 14 35 -3 7 -22 -11 -44
-40 -42 -57 -53 -55 -34 5 32 100 108 176 206 206 74 23 74 21 4 -27z m-141
-391 c-22 -79 -19 -95 14 -95 31 0 119 -45 134 -68 10 -17 7 -21 -28 -31 -56
-17 -113 -77 -127 -134 -18 -70 -13 -187 7 -187 3 0 19 21 34 46 15 26 30 44
32 42 3 -2 9 -38 15 -79 13 -91 34 -157 65 -204 32 -46 15 -45 -36 3 -27 24
-47 56 -59 91 -18 53 -18 53 -25 23 -3 -17 -3 -48 0 -69 l6 -38 -20 25 c-22
26 -81 133 -81 145 0 4 9 -3 19 -16 28 -35 35 -17 10 25 -18 30 -22 54 -22
129 -2 114 16 156 85 203 44 30 46 32 24 38 -13 3 -48 1 -76 -4 -29 -6 -55
-10 -57 -10 -11 0 11 60 54 148 25 51 47 92 48 90 2 -2 -5 -35 -16 -73z m1275
-161 c3 -9 6 -35 6 -59 0 -46 0 -45 62 -59 21 -5 30 -15 37 -44 21 -73 20 -73
-154 -43 -146 25 -226 47 -307 82 -37 16 -99 37 -138 45 -64 15 -72 15 -95 0
-44 -29 -60 -16 -27 23 l17 22 185 -45 c102 -25 232 -53 290 -61 58 -9 130
-22 160 -30 30 -7 56 -12 57 -11 5 5 -70 35 -115 46 -27 7 -41 16 -38 23 3 7
13 38 23 69 19 60 27 69 37 42z m-654 -44 c18 -12 2 -12 -25 0 -13 6 -15 9 -5
9 8 0 22 -4 30 -9z m-10 -32 c10 -6 4 -7 -17 -3 -17 4 -45 7 -62 7 -17 1 -31
5 -31 9 0 10 89 0 110 -13z m-110 -22 c0 -3 -4 -8 -10 -11 -5 -3 -10 -1 -10 4
0 6 5 11 10 11 6 0 10 -2 10 -4z m955 -558 c-25 -31 -112 -108 -121 -108 -2 0
-4 24 -4 54 l0 53 73 15 c39 8 74 16 75 17 2 0 -8 -14 -23 -31z m-1937 -665
l3 -53 -50 0 -51 0 0 -60 0 -60 50 0 50 0 0 -55 0 -55 -50 0 -50 0 0 -120 0
-120 -50 0 -50 0 0 290 0 291 98 -3 97 -3 3 -52z m164 -185 c3 -243 3 -243 25
-246 l23 -3 2 243 3 243 53 3 52 3 0 -253 c0 -233 -2 -256 -20 -285 -13 -21
-31 -35 -57 -42 -77 -22 -145 -5 -173 42 -18 29 -20 52 -20 285 l0 252 55 0
55 0 2 -242z m386 -19 l-3 -261 -33 -29 c-27 -25 -41 -29 -87 -29 l-55 0 0 50
c0 46 2 50 23 50 45 0 47 11 47 245 0 122 3 225 7 228 3 4 28 7 55 7 l49 0 -3
-261z m170 -31 l2 -288 -55 0 -55 0 0 291 0 290 53 -3 52 -3 3 -287z m172 172
l5 -115 23 85 c44 162 36 150 98 150 30 0 54 -5 54 -10 0 -6 -19 -69 -42 -140
-47 -147 -49 -120 16 -322 l34 -108 -57 0 -58 0 -34 117 -34 118 -3 -118 -3
-117 -54 0 -55 0 0 291 0 290 53 -3 52 -3 5 -115z m440 65 l0 -55 -50 0 -50 0
0 -60 0 -60 50 0 50 0 0 -55 0 -55 -50 0 -50 0 0 -65 0 -65 50 0 50 0 0 -55 0
-55 -105 0 -105 0 0 290 0 290 105 0 105 0 0 -55z m190 -27 c12 -46 30 -112
40 -148 l19 -65 0 148 1 147 50 0 50 0 0 -291 0 -290 -52 3 -51 3 -41 145 -41
145 -3 -147 -3 -148 -49 0 -50 0 0 290 0 290 54 0 54 0 22 -82z m540 69 c62
-21 70 -52 70 -278 0 -121 -4 -209 -11 -229 -16 -44 -58 -60 -164 -60 l-85 0
0 290 0 290 78 -1 c42 0 93 -5 112 -12z m340 -41 l0 -55 -52 -3 -53 -3 -3 -57
-3 -58 56 0 55 0 0 -55 0 -55 -55 0 -55 0 0 -65 0 -65 55 0 55 0 0 -55 0 -55
-105 0 -105 0 0 290 0 290 105 0 105 0 0 -54z m161 32 c0 -13 8 -102 18 -198
19 -192 22 -190 41 25 6 66 13 137 16 158 6 37 6 37 55 37 27 0 49 -3 49 -7 0
-14 -70 -528 -75 -550 -5 -21 -11 -23 -75 -23 -39 0 -70 1 -70 3 0 1 -18 130
-40 287 -22 157 -40 286 -40 288 0 1 27 2 60 2 55 0 60 -2 61 -22z"/>
<path d="M3210 1381 c0 -113 4 -192 10 -196 5 -3 19 -1 30 5 19 10 20 20 20
180 0 92 -3 175 -6 184 -3 9 -17 16 -30 16 l-24 0 0 -189z"/>
</g>
</svg>
